<?xml version="1.0" encoding="utf-8"?>
<!-- Generator: Adobe Illustrator 19.0.0, SVG Export Plug-In . SVG Version: 6.00 Build 0)  -->
<svg version="1.1" id="Layer_1" xmlns="http://www.w3.org/2000/svg" xmlns:xlink="http://www.w3.org/1999/xlink" x="0px" y="0px"
	 viewBox="0 0 140 29" style="enable-background:new 0 0 140 29;" xml:space="preserve">
<style type="text/css">
	.st0{fill:#FFFFFF;}
</style>
<path id="XMLID_103_" class="st0" d="M12.5,10.1c-0.4-0.4-0.9-0.7-1.5-0.9C10.4,9,9.8,8.9,9.3,8.9c-0.3,0-0.7,0-1,0.1
	C7.9,9,7.6,9.2,7.3,9.3C7,9.5,6.7,9.7,6.6,9.9c-0.2,0.2-0.3,0.6-0.3,0.9c0,0.6,0.2,1,0.7,1.3c0.5,0.3,1,0.6,1.7,0.8
	c0.7,0.2,1.5,0.4,2.3,0.6s1.5,0.5,2.2,0.9c0.7,0.4,1.3,0.9,1.7,1.6c0.5,0.7,0.7,1.5,0.7,2.6c0,1-0.2,2-0.6,2.7
	c-0.4,0.8-1,1.4-1.7,1.9c-0.7,0.5-1.5,0.9-2.5,1.1c-0.9,0.2-1.9,0.4-3,0.4c-1.3,0-2.5-0.2-3.6-0.6C3,23.9,2,23.3,1,22.5l3.2-3.3
	c0.5,0.6,1,1,1.7,1.3C6.6,20.9,7.3,21,8,21c0.4,0,0.7,0,1.1-0.1c0.4-0.1,0.7-0.2,1-0.4c0.3-0.2,0.5-0.4,0.7-0.6
	c0.2-0.2,0.3-0.5,0.3-0.9c0-0.6-0.2-1-0.7-1.3c-0.5-0.3-1-0.6-1.7-0.9c-0.7-0.2-1.5-0.5-2.3-0.7s-1.6-0.5-2.3-0.9
	c-0.7-0.4-1.3-0.9-1.8-1.5c-0.5-0.6-0.7-1.5-0.7-2.5c0-1,0.2-1.9,0.6-2.7c0.4-0.8,1-1.4,1.7-1.9c0.7-0.5,1.5-0.9,2.5-1.1
	C7.4,5.2,8.4,5,9.3,5c1.1,0,2.2,0.2,3.3,0.5c1.1,0.3,2,0.8,2.9,1.5L12.5,10.1z M20.6,14.9c0-1.5,0.3-2.9,0.8-4.1
	c0.6-1.2,1.3-2.3,2.3-3.1c1-0.9,2.1-1.5,3.4-2C28.5,5.3,29.9,5,31.5,5c1.6,0,3,0.2,4.4,0.7c1.3,0.5,2.5,1.1,3.4,2
	c1,0.9,1.7,1.9,2.3,3.1c0.6,1.2,0.8,2.6,0.8,4.1s-0.3,2.9-0.8,4.1c-0.5,1.2-1.3,2.3-2.3,3.1c-1,0.9-2.1,1.5-3.4,2
	c-1.3,0.5-2.8,0.7-4.4,0.7c-1.6,0-3-0.2-4.4-0.7c-1.3-0.5-2.5-1.1-3.4-2c-1-0.9-1.7-1.9-2.3-3.1C20.9,17.8,20.6,16.5,20.6,14.9z
	 M25.2,14.9c0,0.9,0.1,1.7,0.4,2.5c0.3,0.7,0.7,1.4,1.3,1.9c0.6,0.5,1.2,1,2,1.3c0.8,0.3,1.6,0.5,2.6,0.5c0.9,0,1.8-0.2,2.6-0.5
	c0.8-0.3,1.4-0.7,2-1.3c0.6-0.6,1-1.2,1.3-1.9c0.3-0.7,0.5-1.6,0.5-2.5c0-0.9-0.2-1.7-0.5-2.4c-0.3-0.7-0.7-1.4-1.3-1.9
	c-0.6-0.6-1.2-1-2-1.3c-0.8-0.3-1.6-0.5-2.6-0.5c-0.9,0-1.8,0.2-2.6,0.5c-0.8,0.3-1.4,0.7-2,1.3c-0.6,0.5-1,1.2-1.3,1.9
	C25.4,13.3,25.2,14.1,25.2,14.9z M48.4,5.5h4.4v15h8.2v3.8H48.4V5.5z M73,5.5h3.7l8.8,18.9h-5l-1.7-4h-7.8l-1.7,4h-4.9L73,5.5z
	 M74.7,11l-2.4,5.9h4.9L74.7,11z M103.6,10.4c-0.4-0.5-1-0.9-1.6-1.1c-0.6-0.3-1.4-0.4-2.2-0.4S98.1,9,97.4,9.3
	c-0.7,0.3-1.3,0.7-1.9,1.3c-0.5,0.5-0.9,1.2-1.2,1.9c-0.3,0.7-0.4,1.6-0.4,2.4c0,0.9,0.1,1.7,0.4,2.5c0.3,0.7,0.7,1.4,1.2,1.9
	c0.5,0.5,1.1,1,1.8,1.3c0.7,0.3,1.5,0.5,2.3,0.5c0.9,0,1.7-0.2,2.4-0.5c0.7-0.4,1.3-0.9,1.7-1.5l3.7,2.6c-0.9,1.1-1.9,1.9-3.2,2.5
	c-1.3,0.5-2.7,0.8-4,0.8c-1.6,0-3-0.2-4.4-0.7s-2.5-1.1-3.4-2c-1-0.9-1.7-1.9-2.3-3.1c-0.5-1.2-0.8-2.6-0.8-4.1s0.3-2.9,0.8-4.1
	c0.6-1.2,1.3-2.3,2.3-3.1c1-0.9,2.1-1.5,3.4-2c1.3-0.5,2.8-0.7,4.4-0.7c0.6,0,1.2,0.1,1.8,0.2c0.6,0.1,1.2,0.2,1.8,0.5
	c0.6,0.2,1.2,0.5,1.7,0.9c0.6,0.4,1,0.8,1.5,1.3L103.6,10.4z M112.9,5.5h13.7v3.8h-9.3v3.5h8.7v3.8h-8.7v3.8h9.8v3.8h-14.2V5.5z
	 M133,22.1c0-0.3,0.1-0.7,0.2-1c0.1-0.3,0.3-0.6,0.5-0.8c0.2-0.2,0.5-0.4,0.9-0.5c0.3-0.1,0.7-0.2,1-0.2c0.4,0,0.7,0.1,1,0.2
	c0.3,0.1,0.6,0.3,0.8,0.5c0.2,0.2,0.4,0.5,0.6,0.8c0.1,0.3,0.2,0.6,0.2,1c0,0.3-0.1,0.7-0.2,1c-0.1,0.3-0.3,0.6-0.6,0.8
	c-0.2,0.2-0.5,0.4-0.8,0.5c-0.3,0.1-0.7,0.2-1,0.2c-0.4,0-0.7-0.1-1-0.2c-0.3-0.1-0.6-0.3-0.9-0.5c-0.2-0.2-0.4-0.5-0.5-0.8
	C133.1,22.7,133,22.4,133,22.1z"/>
</svg>
