<?xml version="1.0" encoding="utf-8"?>
<!-- Generator: Adobe Illustrator 19.0.0, SVG Export Plug-In . SVG Version: 6.00 Build 0)  -->
<svg  width="140px" height="29px" version="1.1" id="Layer_1" xmlns="http://www.w3.org/2000/svg" xmlns:xlink="http://www.w3.org/1999/xlink" x="0px" y="0px"
	 viewBox="0 0 140 29" style="enable-background:new 0 0 140 29;" xml:space="preserve">
<path id="XMLID_11_" d="M12.5,9c-0.4-0.5-0.9-0.8-1.5-1c-0.6-0.2-1.2-0.3-1.7-0.3c-0.3,0-0.7,0-1,0.1c-0.3,0.1-0.7,0.2-1,0.4
	C7,8.3,6.7,8.5,6.5,8.7s-0.3,0.6-0.3,1c0,0.6,0.2,1.1,0.7,1.4s1,0.6,1.7,0.8c0.7,0.2,1.5,0.5,2.2,0.7s1.5,0.6,2.2,1
	c0.7,0.4,1.3,1,1.7,1.7c0.5,0.7,0.7,1.6,0.7,2.8c0,1.1-0.2,2.1-0.6,2.9c-0.4,0.8-1,1.5-1.7,2.1c-0.7,0.6-1.5,1-2.5,1.2
	c-0.9,0.3-1.9,0.4-3,0.4c-1.3,0-2.5-0.2-3.6-0.6C3,23.7,2,23,1,22.2l3.2-3.5c0.5,0.6,1,1.1,1.7,1.4c0.7,0.3,1.4,0.5,2.2,0.5
	c0.4,0,0.7,0,1.1-0.1c0.4-0.1,0.7-0.2,1-0.4c0.3-0.2,0.5-0.4,0.7-0.7c0.2-0.3,0.3-0.6,0.3-0.9c0-0.6-0.2-1.1-0.7-1.4
	c-0.5-0.4-1-0.7-1.7-0.9c-0.7-0.2-1.5-0.5-2.3-0.7s-1.6-0.6-2.3-1c-0.7-0.4-1.3-1-1.8-1.7c-0.5-0.7-0.7-1.6-0.7-2.7
	c0-1.1,0.2-2,0.6-2.8c0.4-0.8,1-1.5,1.7-2c0.7-0.6,1.5-1,2.5-1.2c0.9-0.3,1.9-0.4,2.9-0.4c1.1,0,2.2,0.2,3.3,0.5
	c1.1,0.3,2,0.9,2.9,1.6L12.5,9z M20.6,14.1c0-1.6,0.3-3.1,0.8-4.4c0.5-1.3,1.3-2.4,2.3-3.3c1-0.9,2.1-1.6,3.4-2.1
	c1.3-0.5,2.8-0.7,4.4-0.7c1.6,0,3,0.2,4.4,0.7c1.3,0.5,2.5,1.2,3.4,2.1c1,0.9,1.7,2,2.2,3.3c0.5,1.3,0.8,2.8,0.8,4.4
	s-0.3,3.1-0.8,4.4c-0.5,1.3-1.3,2.4-2.2,3.4c-1,0.9-2.1,1.6-3.4,2.1c-1.3,0.5-2.8,0.7-4.4,0.7c-1.6,0-3-0.2-4.4-0.7
	c-1.3-0.5-2.5-1.2-3.4-2.1c-1-0.9-1.7-2-2.3-3.4C20.9,17.2,20.6,15.7,20.6,14.1z M25.2,14.1c0,0.9,0.1,1.8,0.4,2.6
	c0.3,0.8,0.7,1.5,1.3,2c0.5,0.6,1.2,1,2,1.3c0.8,0.3,1.6,0.5,2.6,0.5c0.9,0,1.8-0.2,2.6-0.5c0.8-0.3,1.4-0.8,2-1.3
	c0.5-0.6,1-1.3,1.3-2c0.3-0.8,0.5-1.7,0.5-2.6c0-0.9-0.2-1.8-0.5-2.6c-0.3-0.8-0.7-1.5-1.3-2c-0.6-0.6-1.2-1-2-1.4
	c-0.8-0.3-1.6-0.5-2.6-0.5c-0.9,0-1.8,0.2-2.6,0.5c-0.8,0.3-1.4,0.8-2,1.4c-0.6,0.6-1,1.3-1.3,2C25.4,12.3,25.2,13.2,25.2,14.1z
	 M48.4,4h4.4v16H61v4.1H48.4V4z M73,4h3.7l8.8,20.1h-5l-1.7-4.3h-7.8l-1.7,4.3h-4.9L73,4z M74.7,9.9l-2.4,6.3h4.9L74.7,9.9z
	 M103.4,9.3c-0.4-0.5-1-0.9-1.6-1.2c-0.6-0.3-1.4-0.4-2.2-0.4S98,7.8,97.3,8.1c-0.7,0.3-1.3,0.8-1.8,1.4c-0.5,0.6-0.9,1.3-1.2,2
	c-0.3,0.8-0.4,1.7-0.4,2.6c0,0.9,0.1,1.8,0.4,2.6c0.3,0.8,0.7,1.5,1.2,2c0.5,0.6,1.1,1,1.8,1.3c0.7,0.3,1.5,0.5,2.2,0.5
	c0.9,0,1.7-0.2,2.4-0.6c0.7-0.4,1.3-0.9,1.7-1.6l3.7,2.8c-0.9,1.2-1.9,2.1-3.2,2.6c-1.3,0.6-2.7,0.9-4,0.9c-1.6,0-3-0.2-4.4-0.7
	c-1.3-0.5-2.5-1.2-3.4-2.1c-1-0.9-1.7-2-2.3-3.4c-0.5-1.3-0.8-2.8-0.8-4.4S89.4,11,90,9.7c0.6-1.3,1.3-2.4,2.3-3.3
	c1-0.9,2.1-1.6,3.4-2.1c1.3-0.5,2.8-0.7,4.4-0.7c0.6,0,1.2,0.1,1.8,0.2c0.6,0.1,1.2,0.3,1.8,0.5c0.6,0.2,1.2,0.5,1.7,0.9
	c0.6,0.4,1,0.8,1.5,1.4L103.4,9.3z M112.8,4h13.7v4.1h-9.2v3.8h8.7V16h-8.7v4.1h9.8v4.1h-14.2V4z M132.9,21.7c0-0.4,0.1-0.7,0.2-1
	c0.1-0.3,0.3-0.6,0.5-0.8c0.2-0.2,0.5-0.4,0.9-0.6c0.3-0.1,0.7-0.2,1-0.2c0.4,0,0.7,0.1,1,0.2c0.3,0.1,0.6,0.3,0.8,0.6
	c0.2,0.2,0.4,0.5,0.6,0.8c0.1,0.3,0.2,0.7,0.2,1c0,0.4-0.1,0.7-0.2,1c-0.1,0.3-0.3,0.6-0.6,0.9c-0.2,0.2-0.5,0.4-0.8,0.5
	c-0.3,0.1-0.7,0.2-1,0.2c-0.4,0-0.7-0.1-1-0.2c-0.3-0.1-0.6-0.3-0.9-0.5c-0.2-0.2-0.4-0.5-0.5-0.9C133,22.4,132.9,22.1,132.9,21.7z"
	/>
</svg>
