<svg xmlns="http://www.w3.org/2000/svg" viewBox="0 0 140 29"><path d="M12.5 10.1c-.4-.4-.9-.7-1.5-.9-.6-.2-1.2-.3-1.7-.3-.3 0-.7 0-1 .1-.4 0-.7.2-1 .3-.3.2-.6.4-.7.6-.2.2-.3.6-.3.9 0 .6.2 1 .7 1.3.5.3 1 .6 1.7.8.7.2 1.5.4 2.3.6s1.5.5 2.2.9c.7.4 1.3.9 1.7 1.6.5.7.7 1.5.7 2.6 0 1-.2 2-.6 2.7-.4.8-1 1.4-1.7 1.9s-1.5.9-2.5 1.1c-.9.2-1.9.4-3 .4-1.3 0-2.5-.2-3.6-.6C3 23.9 2 23.3 1 22.5l3.2-3.3c.5.6 1 1 1.7 1.3.7.4 1.4.5 2.1.5.4 0 .7 0 1.1-.1.4-.1.7-.2 1-.4.3-.2.5-.4.7-.6.2-.2.3-.5.3-.9 0-.6-.2-1-.7-1.3-.5-.3-1-.6-1.7-.9-.7-.2-1.5-.5-2.3-.7s-1.6-.5-2.3-.9c-.7-.4-1.3-.9-1.8-1.5s-.7-1.5-.7-2.5.2-1.9.6-2.7c.4-.8 1-1.4 1.7-1.9s1.5-.9 2.5-1.1c1-.3 2-.5 2.9-.5 1.1 0 2.2.2 3.3.5 1.1.3 2 .8 2.9 1.5l-3 3.1zm8.1 4.8c0-1.5.3-2.9.8-4.1.6-1.2 1.3-2.3 2.3-3.1 1-.9 2.1-1.5 3.4-2 1.4-.4 2.8-.7 4.4-.7 1.6 0 3 .2 4.4.7 1.3.5 2.5 1.1 3.4 2 1 .9 1.7 1.9 2.3 3.1.6 1.2.8 2.6.8 4.1s-.3 2.9-.8 4.1c-.5 1.2-1.3 2.3-2.3 3.1-1 .9-2.1 1.5-3.4 2-1.3.5-2.8.7-4.4.7-1.6 0-3-.2-4.4-.7-1.3-.5-2.5-1.1-3.4-2-1-.9-1.7-1.9-2.3-3.1-.5-1.2-.8-2.5-.8-4.1zm4.6 0c0 .9.1 1.7.4 2.5.3.7.7 1.4 1.3 1.9.6.5 1.2 1 2 1.3.8.3 1.6.5 2.6.5.9 0 1.8-.2 2.6-.5s1.4-.7 2-1.3c.6-.6 1-1.2 1.3-1.9.3-.7.5-1.6.5-2.5 0-.9-.2-1.7-.5-2.4s-.7-1.4-1.3-1.9c-.6-.6-1.2-1-2-1.3-.8-.3-1.6-.5-2.6-.5-.9 0-1.8.2-2.6.5s-1.4.7-2 1.3c-.6.5-1 1.2-1.3 1.9-.2.8-.4 1.6-.4 2.4zm23.2-9.4h4.4v15H61v3.8H48.4V5.5zm24.6 0h3.7l8.8 18.9h-5l-1.7-4H71l-1.7 4h-4.9L73 5.5zm1.7 5.5l-2.4 5.9h4.9L74.7 11zm28.9-.6c-.4-.5-1-.9-1.6-1.1-.6-.3-1.4-.4-2.2-.4s-1.7.1-2.4.4c-.7.3-1.3.7-1.9 1.3-.5.5-.9 1.2-1.2 1.9-.3.7-.4 1.6-.4 2.4 0 .9.1 1.7.4 2.5.3.7.7 1.4 1.2 1.9s1.1 1 1.8 1.3c.7.3 1.5.5 2.3.5.9 0 1.7-.2 2.4-.5.7-.4 1.3-.9 1.7-1.5l3.7 2.6c-.9 1.1-1.9 1.9-3.2 2.5-1.3.5-2.7.8-4 .8-1.6 0-3-.2-4.4-.7s-2.5-1.1-3.4-2c-1-.9-1.7-1.9-2.3-3.1-.5-1.2-.8-2.6-.8-4.1s.3-2.9.8-4.1c.6-1.2 1.3-2.3 2.3-3.1 1-.9 2.1-1.5 3.4-2 1.3-.5 2.8-.7 4.4-.7.6 0 1.2.1 1.8.2.6.1 1.2.2 1.8.5.6.2 1.2.5 1.7.9.6.4 1 .8 1.5 1.3l-3.4 2.3zm9.3-4.9h13.7v3.8h-9.3v3.5h8.7v3.8h-8.7v3.8h9.8v3.8h-14.2V5.5zM133 22.1c0-.3.1-.7.2-1 .1-.3.3-.6.5-.8.2-.2.5-.4.9-.5.3-.1.7-.2 1-.2.4 0 .7.1 1 .2.3.1.6.3.8.5.2.2.4.5.6.8.1.3.2.6.2 1 0 .3-.1.7-.2 1-.1.3-.3.6-.6.8-.2.2-.5.4-.8.5-.3.1-.7.2-1 .2-.4 0-.7-.1-1-.2-.3-.1-.6-.3-.9-.5-.2-.2-.4-.5-.5-.8-.1-.4-.2-.7-.2-1z" fill="#fff"/></svg>