<svg width="140" height="29" xmlns="http://www.w3.org/2000/svg"><path d="M12.5 9c-.4-.5-.9-.8-1.5-1-.6-.2-1.2-.3-1.7-.3-.3 0-.7 0-1 .1-.3.1-.7.2-1 .4-.3.1-.6.3-.8.5s-.3.6-.3 1c0 .6.2 1.1.7 1.4s1 .6 1.7.8c.7.2 1.5.5 2.2.7s1.5.6 2.2 1c.7.4 1.3 1 1.7 1.7.5.7.7 1.6.7 2.8 0 1.1-.2 2.1-.6 2.9-.4.8-1 1.5-1.7 2.1-.7.6-1.5 1-2.5 1.2-.9.3-1.9.4-3 .4-1.3 0-2.5-.2-3.6-.6-1-.4-2-1.1-3-1.9l3.2-3.5c.5.6 1 1.1 1.7 1.4.7.3 1.4.5 2.2.5.4 0 .7 0 1.1-.1.4-.1.7-.2 1-.4.3-.2.5-.4.7-.7.2-.3.3-.6.3-.9 0-.6-.2-1.1-.7-1.4-.5-.4-1-.7-1.7-.9-.7-.2-1.5-.5-2.3-.7s-1.6-.6-2.3-1c-.7-.4-1.3-1-1.8-1.7s-.7-1.6-.7-2.7.2-2 .6-2.8c.4-.8 1-1.5 1.7-2 .7-.6 1.5-1 2.5-1.2.9-.3 1.9-.4 2.9-.4 1.1 0 2.2.2 3.3.5 1.1.3 2 .9 2.9 1.6L12.5 9zm8.1 5.1c0-1.6.3-3.1.8-4.4.5-1.3 1.3-2.4 2.3-3.3 1-.9 2.1-1.6 3.4-2.1 1.3-.5 2.8-.7 4.4-.7 1.6 0 3 .2 4.4.7 1.3.5 2.5 1.2 3.4 2.1 1 .9 1.7 2 2.2 3.3.5 1.3.8 2.8.8 4.4s-.3 3.1-.8 4.4c-.5 1.3-1.3 2.4-2.2 3.4-1 .9-2.1 1.6-3.4 2.1-1.3.5-2.8.7-4.4.7-1.6 0-3-.2-4.4-.7-1.3-.5-2.5-1.2-3.4-2.1-1-.9-1.7-2-2.3-3.4-.5-1.3-.8-2.8-.8-4.4zm4.6 0c0 .9.1 1.8.4 2.6.3.8.7 1.5 1.3 2 .5.6 1.2 1 2 1.3.8.3 1.6.5 2.6.5.9 0 1.8-.2 2.6-.5s1.4-.8 2-1.3c.5-.6 1-1.3 1.3-2 .3-.8.5-1.7.5-2.6 0-.9-.2-1.8-.5-2.6s-.7-1.5-1.3-2c-.6-.6-1.2-1-2-1.4-.8-.3-1.6-.5-2.6-.5-.9 0-1.8.2-2.6.5s-1.4.8-2 1.4c-.6.6-1 1.3-1.3 2-.2.8-.4 1.7-.4 2.6zM48.4 4h4.4v16H61v4.1H48.4V4zM73 4h3.7l8.8 20.1h-5l-1.7-4.3H71l-1.7 4.3h-4.9L73 4zm1.7 5.9l-2.4 6.3h4.9l-2.5-6.3zm28.7-.6c-.4-.5-1-.9-1.6-1.2-.6-.3-1.4-.4-2.2-.4s-1.6.1-2.3.4c-.7.3-1.3.8-1.8 1.4-.5.6-.9 1.3-1.2 2-.3.8-.4 1.7-.4 2.6 0 .9.1 1.8.4 2.6.3.8.7 1.5 1.2 2 .5.6 1.1 1 1.8 1.3.7.3 1.5.5 2.2.5.9 0 1.7-.2 2.4-.6.7-.4 1.3-.9 1.7-1.6l3.7 2.8c-.9 1.2-1.9 2.1-3.2 2.6-1.3.6-2.7.9-4 .9-1.6 0-3-.2-4.4-.7-1.3-.5-2.5-1.2-3.4-2.1-1-.9-1.7-2-2.3-3.4-.5-1.3-.8-2.8-.8-4.4s.2-3 .8-4.3c.6-1.3 1.3-2.4 2.3-3.3 1-.9 2.1-1.6 3.4-2.1 1.3-.5 2.8-.7 4.4-.7.6 0 1.2.1 1.8.2.6.1 1.2.3 1.8.5.6.2 1.2.5 1.7.9.6.4 1 .8 1.5 1.4l-3.5 2.7zm9.4-5.3h13.7v4.1h-9.2v3.8h8.7V16h-8.7v4.1h9.8v4.1h-14.2V4zm20.1 17.7c0-.4.1-.7.2-1 .1-.3.3-.6.5-.8.2-.2.5-.4.9-.6.3-.1.7-.2 1-.2.4 0 .7.1 1 .2.3.1.6.3.8.6.2.2.4.5.6.8.1.3.2.7.2 1 0 .4-.1.7-.2 1-.1.3-.3.6-.6.9-.2.2-.5.4-.8.5-.3.1-.7.2-1 .2-.4 0-.7-.1-1-.2-.3-.1-.6-.3-.9-.5-.2-.2-.4-.5-.5-.9-.1-.3-.2-.6-.2-1z"/></svg>